<?xml version="1.0" standalone="no"?>
<!DOCTYPE svg PUBLIC "-//W3C//DTD SVG 20010904//EN"
 "http://www.w3.org/TR/2001/REC-SVG-20010904/DTD/svg10.dtd">
<svg version="1.0" xmlns="http://www.w3.org/2000/svg"
 width="352.000000pt" height="352.000000pt" viewBox="0 0 352.000000 352.000000"
 preserveAspectRatio="xMidYMid meet">

<g transform="translate(0.000000,352.000000) scale(0.100000,-0.100000)"
fill="#000000" stroke="none">
<path d="M1507 3444 c-622 -97 -1128 -512 -1348 -1107 -133 -358 -133 -796 0
-1154 95 -256 231 -465 422 -648 327 -313 729 -475 1179 -475 450 0 852 162
1179 475 337 323 521 755 521 1225 0 470 -184 902 -521 1225 -266 254 -573
405 -937 460 -125 18 -373 18 -495 -1z m130 -673 c35 -4 66 -11 70 -15 9 -9 6
-377 -2 -415 -5 -21 -12 -13 -52 57 -83 148 -196 257 -313 304 -44 18 -76 22
-155 23 -92 0 -105 -3 -167 -32 -77 -36 -142 -98 -178 -169 -21 -42 -25 -62
-25 -144 0 -86 3 -102 31 -161 66 -139 210 -256 460 -375 293 -138 443 -274
504 -455 18 -52 21 -81 18 -155 -3 -78 -8 -100 -36 -155 -62 -125 -141 -206
-263 -269 -87 -45 -162 -63 -265 -62 -77 0 -105 5 -180 32 -136 49 -181 56
-265 40 -58 -11 -72 -11 -79 0 -11 17 -18 119 -25 340 l-6 185 24 -65 c97
-268 258 -422 463 -445 170 -20 353 76 435 228 32 59 34 67 34 162 0 87 -3
107 -26 155 -67 141 -183 235 -456 371 -113 55 -233 122 -272 152 -156 118
-221 247 -221 438 0 249 83 378 280 432 58 15 96 17 335 11 149 -3 298 -9 332
-13z m391 -1011 c-2 -665 -6 -1010 -13 -1010 -7 0 -11 345 -13 1010 -2 895 0
1010 13 1010 13 0 15 -115 13 -1010z m222 875 l0 -65 270 0 270 0 0 -30 0 -30
-270 0 -270 0 0 -65 0 -65 -30 0 -30 0 0 160 0 160 30 0 30 0 0 -65z m356
-330 c60 -18 127 -73 156 -129 19 -36 23 -61 26 -198 l4 -158 -301 0 -301 0 0
83 c1 245 52 350 193 398 64 22 157 24 223 4z m104 -627 c78 -40 111 -137 76
-221 -12 -29 -89 -107 -105 -107 -4 0 -12 10 -20 21 -12 20 -9 25 28 58 51 44
64 83 45 137 -23 66 -75 89 -133 58 -20 -10 -67 -58 -106 -107 -85 -106 -114
-127 -177 -127 -39 0 -54 6 -83 31 -67 59 -68 150 -4 224 36 40 54 44 70 14 9
-18 6 -26 -22 -55 -63 -65 -36 -155 45 -154 37 1 57 17 117 95 65 84 98 115
144 136 52 24 72 24 125 -3z m7 -450 c114 -75 108 -271 -9 -339 -42 -23 -51
-24 -280 -27 l-238 -4 0 31 0 31 220 0 c239 0 274 6 305 53 44 67 38 141 -15
192 l-31 30 -240 3 -239 3 0 30 0 31 243 -4 244 -3 40 -27z"/>
<path d="M2402 2247 c-100 -38 -142 -111 -150 -263 l-5 -104 244 2 244 3 -2
109 c-3 137 -23 185 -98 231 -41 26 -60 30 -124 32 -42 1 -91 -3 -109 -10z"/>
</g>
</svg>
